<svg width="326" height="349" viewBox="0 0 326 349" fill="none" xmlns="http://www.w3.org/2000/svg">
<path d="M177.087 23.7388C176.962 22.9654 176.876 22.1841 176.831 21.3991C176.162 10.3804 183.405 0.825579 193.025 0.0493072C202.656 -0.719186 210.996 7.58646 211.668 18.6052C212.341 29.6239 205.095 39.1787 195.475 39.955C194.867 40.0079 194.264 40.0172 193.674 39.9907C193.284 40.1059 193.051 40.1603 192.715 40.4994C191.725 42.2667 195.234 41.9369 192.848 49.6607C192.848 49.6607 192.832 50.5085 192.567 51.3564C192.38 54.3214 191.384 63.1078 191.241 67.7872C191.748 68.4655 191.891 68.7953 191.835 70.4396C191.61 72.6626 191.164 78.1105 190.448 81.6014C189.841 84.5929 188.775 85.1639 187.915 85.8966C186.706 92.0943 186.387 97.228 183.286 104.756C183.004 110.462 182.654 112.016 181.609 114.802C181.492 123.204 181.999 124.455 177.049 137.759C175.771 143.982 176.987 148.286 178.336 154.751C179.716 161.396 183.544 164.172 184.113 170.977C185.453 187.002 185.118 197.912 182.116 210.477L184.736 217.583C187.988 219.291 196.057 223.961 191.582 231.353C197.884 235.146 207.402 239.174 215.253 246.865C218.411 249.877 221.747 253.161 224.741 257.016C230.441 258.033 229.832 258.551 234.057 261.524C246.479 270.246 266.399 287.55 277.947 299.801C279.935 301.131 280.746 302.089 282.352 303.054C282.603 303.604 282.671 303.732 282.615 303.881C282.064 305.48 282.084 305.527 281.586 306.801C282.209 307.59 283.371 308.327 284.065 309.018C284.714 309.25 284.714 308.893 285.828 308.581C287.277 310.135 289.073 311.387 289.717 311.314C291.682 310.743 291.347 311.208 293.008 309.08C293.606 308.375 294.607 309.089 294.607 309.089C295.231 308.251 296.571 306.58 298.359 305.373C299.785 304.41 302.507 304.303 302.507 304.303C303.419 304.312 303.248 305.382 303.169 305.731C302.139 306.339 299.958 307.008 298.732 308.043C296.065 311.202 293.975 315.465 293.975 315.465C299.346 314.625 302.646 316.151 307.122 315.563C309.563 315.401 311.364 315.581 313.927 313.456C313.927 313.456 316.391 311.448 318.598 310.382C320.742 309.312 322.777 309.883 324.663 311.453C325.996 313.175 326.799 313.184 324.772 315.615C324.04 316.56 322.979 317.614 321.632 319.142C319.261 321.824 316.07 325.399 312.767 328.358C309.421 331.349 305.625 334.036 303.254 335.268C297.275 340.189 298.686 338.902 293.985 343.779C293.391 344.387 291.817 345.475 291.054 346.055C289.199 347.449 288.621 346.287 287.412 343.734C287.412 343.734 286.859 342.78 285.946 340.742C284.949 338.519 284.201 335.977 284.504 336.019C283.39 335.858 278.375 329.125 278.362 327.681C277.302 327.403 272.778 322.387 272.617 321.429L268.609 317.75C264.025 318.84 262.974 315.58 250.865 305.74C249.484 305.712 247.35 304.858 244.291 302.26C238.827 297.248 225.719 285.909 223.497 284.613C221.11 283.22 218.259 281.909 216.51 280.255C213.889 279.703 212.456 279.389 211.145 278.97C209.806 278.55 208.588 278.008 205.197 277.488C199.678 276.702 193.954 274.086 188.504 270.962C185.925 269.562 183.678 268.848 181.457 267.754C176.475 265.344 172.203 263.174 168.892 262.298C167.629 262.155 161.625 260.093 158.476 257.988C157.384 257.344 156.753 256.728 156.036 256.539C154.382 256.104 153.322 256.852 152.574 257.14C148.536 259.55 144.754 261.631 141.261 263.784C138.009 265.775 135.015 267.844 131.842 269.937C128.98 271.83 125.673 273.614 122.275 275.473C122.275 275.473 112.583 281.036 107.289 283.199C102.697 287.492 93.3092 294.921 87.5797 298.6C84.7421 300.144 79.2299 304.144 76.687 305.039C75.2363 306.376 70.0677 310.6 66.0212 314.083C62.8942 316.762 60.5321 319.021 60.5321 319.021C58.7159 320.886 58.8395 321.771 55.3866 320.091C54.4276 320.993 53.6873 321.555 53.0706 322.073C50.5766 324.145 50.3647 323.646 49.4533 323.591C47.7146 325.315 47.4959 324.424 45.9759 326.407C44.9775 328.177 45.999 327.754 43.8935 328.613C43.4493 328.809 43.2388 329.423 42.8965 329.764C41.204 331.36 41.1972 335.872 37.1425 336.194C34.7952 338.112 35.3956 340.428 33.6026 340.327C33.7126 342.317 30.4295 345.221 29.8372 345.212C24.6673 347.254 24.3087 342.902 18.1024 346.15C17.2996 346.571 16.1219 347.733 14.5706 348.07C11.8417 348.659 8.54361 348.042 6.53188 346.257C3.36555 343.462 0.450512 338.068 0.450512 338.068C-0.556031 335.344 0.0294211 333.622 3.1713 331.048C4.48076 330.094 4.72255 329.38 6.92173 329.207C8.01385 328.734 7.71637 329.458 9.66697 328.657C10.7971 328.191 10.7971 328.523 13.0737 328.3C13.5953 327.897 14.3289 327.754 15.311 327.389C17.1121 326.709 18.8671 325.951 18.8671 325.951C18.8671 325.951 19.3263 325.424 21.0582 325.612C22.5238 324.925 24.0289 323.904 24.8004 323.591C24.6048 320.933 24.8548 321.057 25.9306 319.987C27.2713 318.663 27.5131 318.879 28.5115 319.699C28.9326 319.421 29.135 319.326 29.0888 318.921C28.9244 317.537 27.888 316.885 28.2004 313.833C27.7399 312.61 27.0621 311.101 27.2102 310.189C27.4289 309.206 27.6394 308.732 28.161 308.419C28.7152 308.081 28.8945 308.537 29.1907 308.918C29.7204 309.625 30.1497 311.715 30.1497 311.715C30.3371 314.074 30.9755 317.128 33.0104 315.404C34.2111 314.01 34.4448 310.297 36.8925 311.092L38.6394 312.831C40.1214 311.235 40.192 311.235 41.0804 310.592C41.0804 310.592 39.6921 308.985 40.9092 307.735C41.7432 306.885 42.7484 306.277 44.5347 304.01C49.4383 297.805 51.9567 295.062 57.2598 290.061C67.84 280.095 79.8778 273.106 87.5267 269.63C90.0207 266.004 92.4467 263.594 97.982 262.986C104.562 250.261 117.162 238.897 120.055 237.084C122.409 232.198 123.431 232.718 126.51 231.736C128.95 229.496 129.504 229.496 130.596 227.156C131.657 222.328 128.148 209.423 137.105 208.772C139.008 205.693 138.533 206.432 140.653 203.521C139.219 199.467 138.627 196.076 138.237 193.154C138.166 192.815 134.682 190.003 135.671 186.331C134.19 184.314 131.422 179.605 130.557 177.399C130.16 177.408 129.831 177.237 129.395 177.168C128.943 177.086 128.381 177.116 127.75 177.053C126.355 181.176 124.835 181.482 122.355 182.392C117.927 193.201 116.367 197.776 103.838 206.712C98.8636 213.09 97.2729 220.196 97.296 220.09C96.4389 222.197 96.7418 225.145 97.1941 226.725C96.5394 229.065 96.7106 229.297 96.7106 229.297C96.9836 230.18 97.694 231.35 98.5661 231.599C100.071 232.055 101.576 231.982 101.489 233.902C101.287 236.304 98.5348 235.91 97.2322 235.642C92.2185 234.731 93.8023 230.989 90.5966 232.239C88.1407 234.079 87.2211 239.508 83.2126 238.803C82.6828 238.402 82.8458 237.215 83.2044 236.358C83.7668 235.019 84.7638 233.911 84.1716 233.408C81.5578 234.367 78.9483 235.341 76.3433 236.33C73.8874 237.097 71.1965 235.695 73.6144 233.846C74.7378 233.346 76.3433 232.719 78.3238 231.266C78.3238 231.266 79.344 229.676 77.3879 230.471C75.2512 231.346 72.1012 231.89 69.8409 231.605C69.8409 231.605 65.1546 230.901 64.5542 230.479C63.9456 230.058 63.3928 228.399 64.8584 228.409C66.7139 228.427 71.3609 227.8 74.9632 226.702C76.7019 225.926 80.0082 223.686 81.8637 222.631C81.8637 222.631 83.8754 219.274 84.9825 218.613C86.8299 216.176 88.3893 214.737 90.0261 212.245C91.6249 208.467 93.278 202.487 98.5715 193.226C101.019 188.957 104.061 183.985 107.888 179.539C107.888 179.539 108.879 172.424 113.861 167.36C114.961 164.395 116.63 160.904 118.275 157.671C118.914 156.43 119.521 155.35 120.13 154.171C121.674 151.394 123.296 146.225 129.315 145.411C129.315 145.411 131.888 143.233 132.878 141.685C134.423 140.176 134.071 137.829 135.326 136.175C133.408 134.033 128.504 130.006 128.028 124.407C127.521 118.469 129.368 113.584 132.503 109.969C135.981 105.986 139.646 103.995 144.097 104.298C149.655 105.244 150.708 107.352 152.478 109.441C154.177 111.423 154.809 110.148 155.526 112.469C160.189 113.889 159.931 113.264 159.892 117.193C160.609 118.299 161.81 119.328 161.794 121.622C163.361 117.898 163.672 117.212 167.86 113.113C168.85 109.782 169.523 106.506 170.392 103.175C171.208 100.095 172.223 96.9246 173.01 94.5398C172.176 87.8069 173.888 86.6915 176.175 80.7893C175.77 79.9773 175.857 79.7455 176.028 78.4139C176.916 74.5123 178.304 69.3506 179.13 65.9842C179.13 65.9842 179.403 64.6448 180.612 64.5468C181.658 60.2874 183.226 52.3582 183.489 50.7419C184.565 46.2865 183.871 44.8568 183.045 42.3476C182.78 41.5262 182.904 40.3563 182.446 39.4447C181.143 36.8468 179.742 33.471 178.791 31.0597C178.174 29.5243 177.199 23.7373 177.199 23.7373C176.362 20.7831 177.087 23.7388 177.087 23.7388Z" fill="url(#paint0_linear_4_10)"/>
<defs>
<linearGradient id="paint0_linear_4_10" x1="162.995" y1="338.578" x2="199.002" y2="84.3814" gradientUnits="userSpaceOnUse">
<stop offset="0.064024" stop-color="#0BA967"/>
<stop offset="1" stop-color="#34FA7D"/>
</linearGradient>
</defs>
</svg>
