<svg width="1875" height="928" viewBox="0 0 1875 928" fill="none" xmlns="http://www.w3.org/2000/svg">
<path d="M940.781 322.188L940.313 322.344C936.563 323.75 935.469 328.438 937.969 331.563L953.594 350.469L964.219 341.406L947.188 323.594C946.368 322.768 945.328 322.196 944.192 321.947C943.055 321.697 941.871 321.781 940.781 322.188ZM687.187 621.406L646.094 600C642.5 598.125 638.281 597.031 634.219 597.031H622.344C621.27 597.005 620.24 596.597 619.439 595.882C618.638 595.166 618.117 594.189 617.969 593.125C616.719 580 605.625 569.844 592.5 569.844H588.75C580.781 569.844 573.281 566.094 568.438 559.688L562.813 552.188C558.438 546.406 551.875 542.813 544.688 542.188L514.063 539.531C513.316 539.51 512.6 539.234 512.031 538.75L507.031 535.313C505.625 534.375 503.906 534.219 502.5 535.156L480.625 547.5C476.719 549.688 472.5 550.781 467.969 550.781H445.469C444.687 550.781 444.063 550.625 443.438 550.313C440.938 548.906 435.156 544.531 435.156 534.844V521.875C435.156 521.301 435.043 520.732 434.823 520.201C434.603 519.67 434.281 519.188 433.875 518.782C433.469 518.375 432.986 518.053 432.455 517.833C431.925 517.613 431.356 517.5 430.781 517.5H416.562C415.798 517.493 415.048 517.286 414.389 516.9C413.729 516.513 413.182 515.96 412.803 515.296C412.423 514.632 412.225 513.88 412.226 513.115C412.228 512.351 412.43 511.6 412.813 510.938L419.531 499.219C419.844 498.594 420.156 497.813 420.156 497.031V486.719C420.156 485.559 419.695 484.446 418.875 483.625C418.054 482.805 416.942 482.344 415.781 482.344H407.969C406.563 482.344 405.156 483.125 404.375 484.375L400 491.25C395.313 498.594 387.187 502.969 378.437 502.969H372.187C372.187 502.969 362.031 501.094 362.031 490.313V451.094C362.188 449.844 363.125 445.938 367.344 443.281C371.094 440.938 379.844 436.25 384.219 433.906C385.781 433.125 387.812 433.281 389.219 434.531L397.5 442.188C398.281 442.969 399.219 443.281 400.313 443.281C402.969 443.281 407.812 443.438 408.75 442.969C410 442.344 406.875 436.719 414.375 434.375C422.031 432.188 427.031 439.063 427.031 439.063L446.406 462.031C447.812 463.75 450.312 464.063 452.187 462.813L455 460.938C456.875 459.688 457.5 457.188 456.406 455.156L456.094 454.531C449.844 443.75 452.187 430 461.719 422.031L477.813 408.438C477.813 408.438 479.687 407.188 480.625 400.156C481.25 395.938 482.344 389.688 483.125 385.313C484.844 382.5 486.25 379.844 487.969 377.031L522.656 347.813C524.688 346.094 527.656 346.563 529.063 348.75C530.781 351.25 533.594 354.063 537.188 353.906C542.656 353.594 556.25 346.25 561.562 343.125C562.233 342.757 562.79 342.214 563.176 341.553C563.561 340.893 563.76 340.14 563.75 339.375V333.906L547.031 337.344C544.687 337.813 542.344 336.25 541.875 333.75L540 322.813C539.825 321.816 539.308 320.912 538.538 320.256C537.768 319.599 536.793 319.233 535.781 319.219L519.063 321.094L521.094 316.094C521.719 314.375 523.281 313.281 525.156 312.969L566.406 308.594C570.156 307.031 575.781 304.844 579.531 303.281L587.812 296.875C589.844 295.313 590 292.344 588.281 290.469L541.875 242.969C541.231 242.33 540.41 241.899 539.519 241.732C538.628 241.565 537.707 241.669 536.875 242.031L522.969 248.594C521.563 249.219 519.844 249.063 518.594 248.281L480.156 221.25C479.705 220.922 479.193 220.686 478.651 220.555C478.108 220.424 477.545 220.402 476.993 220.489C476.442 220.576 475.913 220.771 475.437 221.062C474.961 221.354 474.547 221.736 474.219 222.188L468.281 230.313C467.813 230.938 467.5 231.719 467.5 232.656L466.406 252.813C466.406 254.063 466.719 255.156 467.656 256.094L473.281 261.875C475.156 263.75 474.844 266.875 472.656 268.438L464.375 274.375C463.819 274.779 463.175 275.046 462.497 275.154C461.818 275.263 461.123 275.21 460.469 275L441.719 278.125C439.063 271.094 433.281 265.625 426.094 263.125L416.719 259.844C399.688 254.063 393.906 232.969 405.313 219.219L423.594 197.188C424.064 196.574 424.38 195.856 424.516 195.095C424.652 194.334 424.603 193.551 424.375 192.813L419.219 179.531L418.281 178.125L397.656 156.094C389.531 147.5 375 151.875 373.125 163.594L372.969 164.844C371.875 171.719 365.781 176.875 358.906 176.875H297.5C294.063 176.094 290.625 175.469 287.031 174.688L245 155.938C242.031 155.156 239.219 154.531 236.25 153.75L197.656 151.25C194.062 151.875 190.469 152.344 186.875 152.969L169.531 159.688C164.844 161.406 159.844 161.875 155 160.781L69.2188 142.5C64.0625 141.406 58.5938 141.875 53.75 144.063L13.2812 161.406C10.3125 162.656 9.6875 166.563 12.1875 168.75L22.8125 177.656C25.7813 180.156 24.0625 185.156 20.1562 185.313L4.21875 185.625C1.875 185.625 0 187.656 0 190V192.188C0 194.531 1.875 196.406 4.21875 196.563L17.9688 196.719C22.6563 196.875 23.9063 203.125 19.6875 205L7.8125 210.313C6.09375 211.094 5.15625 212.813 5.3125 214.688L6.40625 226.563C7.5 238.281 16.25 247.656 27.9687 249.531L36.4062 250.938C40.4687 251.563 41.4062 256.875 37.9687 258.906L35.3125 260.469C32.5 262.188 32.5 266.25 35.3125 267.813L36.7187 268.594C37.9687 269.375 39.375 269.375 40.7813 268.906L113.125 236.25C122.5 232.031 133.438 233.75 140.938 240.781L209.844 303.75C214.844 308.281 217.812 314.688 218.125 321.406L220.469 369.531C220.781 375 222.656 380.156 226.094 384.375L293.906 468.75C295.156 470.313 297.344 470.781 299.219 469.844C301.562 468.594 302.344 465.625 300.781 463.438C300.781 463.438 343.594 507.813 347.656 509.688L382.344 526.875C385.937 528.594 389.688 529.531 393.75 529.531H410.937C412.656 529.531 414.219 530.469 414.844 532.031L420.625 544.531C420.625 544.688 420.781 544.688 420.781 544.844C421.875 546.563 430.781 561.719 440.313 562.344C450.469 562.969 468.75 562.344 468.75 562.344C468.75 562.344 475.312 562.188 475.312 569.375V580.313C475.312 581.875 474.531 583.281 473.125 584.063C467.5 587.188 452.969 596.406 452.969 606.875V631.406C452.969 632.5 453.281 633.438 453.906 634.219C455.781 636.406 459.844 641.094 463.281 643.906C467.031 646.875 473.594 654.531 476.25 657.5C476.875 658.281 477.188 659.219 477.188 660.313V674.375C477.344 674.844 477.344 675.469 477.5 675.938C478.281 677.813 480.313 682.5 483.906 684.219C486.094 685.313 491.562 689.688 496.562 694.063C502.812 699.375 506.094 707.344 505.469 715.625L502.344 755.625C502.031 757.188 501.875 758.75 501.562 760.313L487.656 812.5C487.344 815.625 487.187 818.594 486.875 821.719L488.281 843.125C488.594 846.875 488.281 850.625 487.031 854.219L481.875 868.75C480.313 873.438 480 878.438 481.094 883.281L487.656 910.313C488.437 913.438 490.156 916.25 492.813 918.281L499.531 923.594C502.031 925.625 505.781 928.438 508.438 926.563C521.406 917.656 526.094 881.719 531.719 868.281C534.531 861.406 576.094 807.188 575.938 799.844L575.625 789.375C575.625 786.875 577.5 785 580 785H593.281C594.531 785 595.625 784.531 596.406 783.594L627.5 749.531C628.281 748.75 628.594 747.656 628.594 746.563V732.656C628.594 730.156 630.625 728.281 633.125 728.281C638.438 728.594 647.188 728.594 650.156 726.094C653.906 722.969 665.156 709.844 668.75 705.781C669.375 705 669.844 704.063 669.844 702.969V680.938C669.844 674.531 672.187 668.438 676.562 663.594L692.187 646.406C696.562 641.719 697.656 634.688 694.531 628.438C692.969 625.469 690.312 622.969 687.187 621.406V621.406Z" fill="url(#paint0_linear_2_4)"/>
<path d="M1765.63 127.5H1721.88C1719.69 127.5 1717.81 126.094 1717.19 124.063L1675.31 116.094C1671.72 116.094 1668.13 115 1665 112.969L1655.47 106.563C1652.34 104.531 1648.75 103.438 1645.16 103.438C1645.16 103.438 1547.66 53.5938 1420 58.4375C1372.03 60.3125 1329.84 84.2188 1329.84 84.2188C1328.59 84.6876 1327.66 85.9375 1327.5 87.1875L1327.03 91.0938C1326.72 92.9688 1325.16 94.375 1323.12 94.375L1303.91 93.9063C1301.72 93.9063 1300 95.625 1300 97.6563L1246.25 99.5313C1241.56 99.5313 1237.19 101.875 1234.53 105.625L1229.69 112.656C1226.09 117.813 1177.97 119.531 1177.97 119.531C1176.72 118.987 1175.66 118.091 1174.91 116.954C1174.16 115.817 1173.76 114.487 1173.75 113.125V107.5C1173.75 105.469 1174.53 103.75 1176.09 102.344L1201.72 79.2188C1204.53 76.7188 1208.12 75 1211.87 74.5313L1227.81 72.5001C1228.74 72.368 1229.64 72.051 1230.44 71.568C1231.25 71.0849 1231.95 70.4456 1232.5 69.6876L1234.38 66.8751C1237.03 63.1251 1235.31 57.9688 1231.09 56.4063L1230 55.9375C1229.08 55.6247 1228.11 55.5049 1227.14 55.5855C1226.17 55.6662 1225.23 55.9456 1224.38 56.4063L1212.19 63.4375C1211.09 64.0625 1210 64.3751 1208.75 64.3751H1196.87C1191.87 64.3751 1187.19 66.4063 1183.59 70L1155 99.2188C1152.5 101.719 1150.78 105 1150 108.438L1147.34 121.25L1149.22 126.719L1137.97 142.344L1127.81 152.5H1118.28V142.344H1106.87L1103.59 155.156C1102.03 161.094 1097.81 165.781 1092.19 167.969L1082.66 171.563C1076.56 173.906 1069.53 172.813 1064.38 168.594L1052.03 158.594L1085.31 160.313L1089.06 153.125C1089.06 153.125 1054.22 137.031 1034.06 125.625C1017.66 116.406 996.094 124.219 988.594 127.5C986.719 128.281 985.156 129.375 983.75 130.625L911.094 196.094C903.281 203.125 902.812 215.469 910.312 222.969L917.188 230L926.875 222.031C929.531 219.844 933.281 220 935.781 222.344L953.906 239.219H958.594L975.781 218.906C977.812 216.406 977.969 212.969 975.937 210.469L973.75 207.5C972.918 206.416 972.429 205.108 972.345 203.744C972.262 202.379 972.588 201.021 973.281 199.844L997.187 161.094C998.437 159.063 1001.09 158.281 1003.28 159.219L1007.5 161.25C1010 162.344 1010.94 165.313 1009.69 167.813L993.281 198.906C991.25 202.656 990.938 207.031 992.188 210.938L994.844 219.219C996.094 225.156 995 231.406 991.406 236.094L981.094 250C977.5 254.844 971.562 257.656 965.469 257.5L935.625 256.406C934.255 256.332 932.963 255.744 932.007 254.759C931.051 253.774 930.502 252.466 930.469 251.094V246.25C930.469 243.281 928.125 240.938 925.156 240.938C922.5 240.938 920.156 242.969 919.844 245.781L919.062 254.375C918.75 257.031 916.562 259.219 913.75 259.219H910.937C909.531 259.219 908.281 259.688 907.344 260.625L858.906 305.313L865.937 315.469V326.25C865.937 329.844 862.969 332.813 859.375 332.813H843.906C835.625 332.813 829.062 339.844 829.531 348.125L829.687 350.156C830.156 357.5 836.094 363.281 843.594 363.594L860.156 364.063C866.406 364.219 872.188 361.406 875.938 356.25L887.812 339.531C891.25 334.688 896.875 331.719 902.969 331.719H914.375C918.125 331.719 921.875 332.813 925 335L943.281 347.813C946.875 350.313 947.188 355.625 943.75 358.438L933.438 367.344C930 370.313 925.781 371.875 921.25 371.875H856.875C851.094 371.875 845.469 374.688 842.031 379.375L792.344 445.781C790 449.063 788.594 452.969 788.594 456.875V500.938C788.594 505 789.844 508.906 792.344 512.188L809.687 535.156C811.094 537.031 812.031 539.375 812.812 541.563C813.906 545.313 817.031 550.781 824.531 550.781H904.844C904.844 550.781 925 551.406 925 564.688C925 569.375 924.844 574.063 924.688 578.125C924.375 585.313 928.125 591.719 934.375 595.313C940 598.594 945.938 604.219 945.938 613.281V637.656C945.938 639.531 945.625 641.406 945.156 643.281C943.75 647.813 940.469 657.031 935.938 663.906C931.719 670.156 937.656 679.531 942.031 685C944.688 688.438 946.094 692.656 946.094 696.875V721.094C946.094 721.094 947.969 730 956.406 733.75C964.844 737.5 967.813 739.688 967.813 739.688V749.375C967.813 759.688 976.094 767.969 986.406 767.969H1010.78C1010.78 767.969 1021.72 768.75 1028.91 757.813C1036.09 746.875 1061.72 707.187 1061.72 707.187C1061.72 707.187 1066.41 702.187 1061.72 693.281C1057.03 684.375 1059.22 676.406 1059.22 676.406L1081.56 663.594C1081.56 663.594 1092.03 661.875 1092.03 647.344V631.563C1092.03 629.063 1091.41 626.563 1090 624.375L1086.09 617.813C1081.88 610.625 1082.97 601.719 1088.59 595.625L1134.84 546.563C1134.84 546.563 1147.03 528.438 1147.03 519.219H1111.56C1105 519.219 1099.06 515.781 1095.63 510.313L1055.16 443.594C1054.44 442.426 1053.98 441.124 1053.79 439.768C1053.6 438.413 1053.69 437.033 1054.05 435.714C1054.42 434.395 1055.05 433.166 1055.92 432.102C1056.78 431.039 1057.85 430.164 1059.06 429.531C1063.75 427.031 1069.53 428.75 1072.19 433.125L1111.41 497.031L1111.25 502.813C1111.25 504.688 1112.66 506.094 1114.53 506.094C1124.22 506.094 1152.81 505 1168.75 491.094C1177.19 483.75 1182.34 476.25 1185.47 470C1189.22 462.5 1187.34 453.438 1181.09 447.969L1171.09 439.219L1158.13 442.031L1135.16 419.063C1131.72 415.625 1132.66 409.688 1137.03 407.5C1138.25 406.891 1139.62 406.641 1140.97 406.78C1142.33 406.918 1143.62 407.439 1144.69 408.281L1180.62 435.781C1180.62 435.781 1187.97 442.344 1195.47 442.344H1216.56C1223.13 442.344 1229.22 445.781 1232.5 451.406L1279.53 530.469C1279.53 530.469 1286.56 537.031 1290.62 536.719C1294.69 536.406 1300.16 519.375 1300.16 519.375C1300.16 503.594 1307.81 488.594 1320.78 479.531L1337.03 468.125C1344.38 462.969 1354.22 463.75 1360.63 469.844L1370.63 479.531V489.844C1370.63 491.563 1372.03 493.125 1373.91 493.125H1378.28L1382.5 488.906H1387.5V530.469C1387.5 535.156 1389.22 539.688 1392.5 543.125L1423.75 576.562V564.531C1423.75 560.313 1422.34 556.25 1419.69 552.969L1405 534.688C1402.34 531.406 1400.94 527.344 1400.94 523.125V510.469C1400.94 508.438 1403.44 507.5 1404.84 508.906L1423.75 528.281L1424.22 540.469C1424.38 542.813 1427.19 543.906 1428.75 542.188L1455.47 513.281C1455.47 513.281 1463.28 503.594 1455.47 495.625C1449.84 489.844 1442.03 482.5 1437.03 477.812C1436.41 477.24 1435.91 476.539 1435.59 475.758C1435.26 474.977 1435.1 474.134 1435.13 473.287C1435.16 472.441 1435.38 471.611 1435.76 470.854C1436.14 470.098 1436.68 469.433 1437.34 468.906L1442.5 464.531L1463.44 464.844C1463.44 464.844 1477.19 465 1487.5 454.375C1500.16 441.406 1518.75 420.938 1518.75 420.938C1518.75 420.938 1522.5 406.406 1513.75 398.75C1504.84 391.094 1508.75 381.719 1508.75 381.719L1519.69 372.188V365.469H1491.09C1491.09 365.469 1493.59 350.313 1513.91 349.375C1516.56 349.219 1519.06 349.219 1521.09 349.063C1523.17 349.01 1525.24 349.376 1527.18 350.139C1529.12 350.902 1530.88 352.046 1532.37 353.503C1533.85 354.96 1535.03 356.701 1535.83 358.622C1536.64 360.543 1537.04 362.606 1537.03 364.688V392.813L1541.25 393.281C1541.25 393.281 1549.22 394.063 1552.19 383.594C1552.19 383.594 1557.5 382.031 1557.5 375.625V367.969L1549.84 358.75L1562.34 342.813C1564.53 340 1567.66 338.125 1571.09 337.5L1577.5 336.25C1581.31 335.534 1584.68 333.344 1586.88 330.156L1615.78 286.875C1617.81 283.75 1618.91 280.156 1618.91 276.563V264.688C1618.91 263.154 1618.3 261.684 1617.21 260.6C1616.13 259.515 1614.66 258.906 1613.12 258.906H1596.25C1596.25 258.906 1589.22 250.625 1598.75 245C1605.47 240.938 1618.59 230.156 1625.94 224.063C1629.22 221.25 1633.44 219.688 1637.81 219.688H1671.88C1675.78 219.688 1679.53 218.438 1682.66 216.25L1705 200.313C1705.81 199.704 1706.8 199.375 1707.81 199.375C1717.5 199.375 1722.5 210.938 1715.94 218.125L1692.81 242.969C1689.69 246.25 1687.81 250.781 1687.81 255.313L1687.5 275.313C1687.5 279.063 1690.47 282.188 1694.38 282.188H1700L1730.31 251.25C1732.34 249.219 1733.75 246.406 1734.22 243.594L1735.31 237.031C1736.88 228.125 1744.53 221.563 1753.59 221.563H1766.88C1771.41 221.563 1775.78 220 1779.06 217.031L1797.66 200.781C1798.59 200 1799.69 199.531 1800.94 199.531H1810.62C1813.44 199.531 1815.62 197.344 1815.62 194.531V185.156C1815.62 183.75 1816.25 182.5 1817.19 181.563L1824.38 174.844C1830.16 169.531 1838.59 168.281 1845.63 172.031L1857.81 178.438C1860.78 180 1864.53 179.219 1866.72 176.563L1872.66 169.063C1873.33 168.219 1873.8 167.235 1874.04 166.185C1874.27 165.134 1874.27 164.044 1874.03 162.993C1873.79 161.943 1873.32 160.961 1872.65 160.118C1871.98 159.275 1871.13 158.594 1870.16 158.125L1811.25 129.219C1808.12 128.125 1768.44 127.5 1765.63 127.5ZM940.312 322.5L940.781 322.344C941.866 321.902 943.059 321.799 944.203 322.051C945.347 322.302 946.388 322.894 947.188 323.75L964.219 341.563L953.594 350.625L937.969 331.719C935.469 328.594 936.562 323.906 940.312 322.5ZM1042.03 407.656H1032.5C1031.25 407.656 1030 407.5 1028.75 407.188C1018.44 404.375 966.875 390 957.344 385.625C956.288 385.157 955.359 384.443 954.636 383.542C953.913 382.642 953.416 381.581 953.186 380.449C952.957 379.317 953.002 378.146 953.317 377.035C953.633 375.924 954.21 374.905 955 374.063L967.813 360.469C972.188 356.563 979.062 356.875 983.125 361.094L994.844 373.438L1005 371.563L1002.19 364.219C1002.19 364.219 1000.94 360.781 999.688 357.656C998.438 354.531 1005.31 350.625 1005.31 350.625C1005.31 350.625 1012.34 350 1012.34 360.781C1012.34 371.563 1023.75 379.688 1023.75 379.688H1062.66C1065.16 379.688 1066.72 382.344 1065.47 384.375L1058.59 397.5C1055.31 403.75 1048.91 407.656 1042.03 407.656ZM1090.94 349.375H1077.66L1067.97 341.875C1066.87 341.093 1065.57 340.657 1064.22 340.625H1051.56C1049.69 340.625 1047.81 341.406 1046.41 342.656L1037.19 350.781L1028.13 352.188C1027.28 352.334 1026.42 352.306 1025.58 352.107C1024.75 351.908 1023.97 351.542 1023.28 351.03C1022.59 350.519 1022.02 349.873 1021.59 349.131C1021.16 348.39 1020.88 347.569 1020.78 346.719L1019.53 336.719C1019.22 333.75 1020.16 330.938 1022.03 328.75L1037.03 311.875L1043.75 311.406L1043.44 314.375C1042.97 317.969 1045.78 321.094 1049.38 321.094H1052.66C1055.94 321.094 1058.91 319.219 1060.16 316.25L1063.28 309.531L1077.19 311.875L1078.44 321.875C1078.75 324.063 1079.84 326.094 1081.56 327.5L1097.03 340.469V343.281C1097.03 346.719 1094.38 349.375 1090.94 349.375ZM1158.13 360.156V371.563H1134.06L1132.03 360.156C1131.72 358.594 1132.03 356.875 1132.97 355.625L1134.22 353.906C1135.94 351.406 1135.62 347.969 1133.28 345.938L1122.03 335.625V316.719L1138.44 309.688H1146.88C1150.16 309.688 1152.97 311.875 1153.91 315L1154.06 315.469C1154.69 317.813 1154.06 320.156 1152.5 322.031C1151.59 323.038 1151 324.286 1150.78 325.625L1149.22 335.469L1162.5 347.656L1152.97 353.906L1158.13 360.156Z" fill="url(#paint1_linear_2_4)"/>
<path d="M1509.37 611.25L1452.5 604.688C1451.05 604.545 1449.62 604.176 1448.28 603.594L1434.53 597.969C1432.5 597.188 1430.47 595.781 1428.91 594.219L1383.12 546.25C1382.49 545.624 1381.73 545.146 1380.9 544.849C1380.06 544.552 1379.17 544.443 1378.28 544.531C1373.91 545.156 1372.03 550.313 1375 553.594L1423.12 607.5C1425.16 609.688 1427.66 611.25 1430.47 612.188L1457.66 620.313C1459.22 620.781 1460.62 620.938 1462.19 620.938H1508.75L1509.37 611.25V611.25ZM1622.5 641.563L1620.16 648.125C1615.47 661.25 1602.34 669.531 1588.44 667.813C1587.49 667.704 1586.58 667.363 1585.8 666.818C1585.01 666.273 1584.37 665.543 1583.94 664.691C1583.51 663.84 1583.29 662.895 1583.31 661.94C1583.33 660.985 1583.59 660.05 1584.06 659.219L1595.78 637.656L1565.31 638.75C1561.25 638.906 1557.19 639.844 1553.59 641.563L1542.19 646.875C1539.22 648.281 1536.41 650.156 1534.06 652.5L1512.81 673.125C1510.31 675.625 1507.34 677.656 1504.06 679.063L1489.69 685.469C1478.91 690.312 1471.87 700.937 1471.87 712.812V715C1471.87 719.062 1472.66 722.969 1474.22 726.719L1485.47 753.125C1485.78 753.75 1485.94 754.219 1486.09 754.844C1487.97 762.031 1495.78 766.25 1502.81 763.75L1531.56 753.594C1535.62 752.187 1540 751.563 1544.22 752.031L1578.59 755.156C1587.97 755.937 1596.25 761.094 1601.25 769.063L1603.59 772.656C1609.06 781.406 1618.59 786.719 1629.06 786.719H1642.97C1650.94 786.719 1658.59 783.594 1664.22 777.969L1679.53 762.656C1685.16 757.031 1688.28 749.375 1688.28 741.406V721.406C1688.28 712.969 1684.69 705 1678.59 699.375L1647.19 670.625C1644.22 667.969 1641.87 664.688 1640.31 661.094L1630.94 640.781C1628.91 637.656 1623.75 637.813 1622.5 641.563Z" fill="url(#paint2_linear_2_4)"/>
<path d="M1486.09 588.125L1494.69 572.656C1496.25 569.844 1496.88 566.719 1496.72 563.594L1495.31 547.187C1495 543.281 1490.31 541.25 1487.34 543.906L1463.28 564.219C1462.64 564.735 1461.89 565.108 1461.09 565.313L1450.31 567.344C1447.5 567.812 1445.78 570.625 1446.41 573.281L1448.59 582.187C1449.26 584.861 1450.63 587.309 1452.55 589.285C1454.47 591.261 1456.88 592.693 1459.53 593.437L1467.81 595.781C1475 597.812 1482.5 594.688 1486.09 588.125V588.125ZM1616.41 624.531C1618.75 624.531 1621.09 624.062 1623.28 622.969L1639.84 615C1640 615 1640 615 1640.16 615.156L1652.34 630.156C1652.97 630.937 1653.91 631.406 1655 631.406H1663.13C1665.94 631.406 1667.5 628.281 1665.78 626.094L1653.13 609.687L1647.66 605.156L1602.97 582.969H1602.81L1592.19 587.187H1584.06C1583.91 587.187 1583.91 587.188 1583.91 587.031L1580.94 577.344C1580.73 576.716 1580.33 576.169 1579.8 575.777C1579.27 575.385 1578.63 575.168 1577.97 575.156H1567.03C1566.2 575.156 1565.41 575.485 1564.82 576.072C1564.24 576.658 1563.91 577.452 1563.91 578.281V587.812H1570.94V590.625C1570.94 594.062 1573.59 597.031 1577.03 597.5L1592.97 599.375C1592.97 599.375 1593.12 599.375 1593.12 599.531L1601.72 610.156C1604.38 613.437 1603.91 621.406 1601.09 624.687L1600.94 624.844H1616.41V624.531ZM1625.63 321.563L1620 326.563C1613.75 332.188 1610 339.844 1609.06 348.281C1608.28 356.094 1604.84 363.281 1599.38 368.906C1591.41 376.875 1581.41 382.344 1570.62 384.688L1568.44 385.156L1559.53 392.344C1559.53 392.344 1557.03 405 1559.53 407.969C1560.62 409.375 1565.31 409.063 1566.72 407.969C1568.59 406.563 1568.75 398.75 1568.75 398.75L1597.03 388.594C1597.03 388.594 1604.06 397.813 1607.5 398.281C1609.06 398.438 1612.5 396.719 1613.44 395.312C1617.19 390.156 1621.41 371.25 1621.41 371.25C1622.81 367.031 1623.75 362.5 1624.22 358.125L1625.78 341.562L1638.44 340.781L1643.44 330.625L1630.31 329.375L1625.63 321.563V321.563ZM1104.22 709.219C1104.22 709.219 1108.44 717.5 1118.59 717.5C1128.75 717.5 1132.97 709.219 1132.97 709.219V670.625C1132.97 659.375 1120.62 652.5 1111.09 658.438C1106.87 661.094 1104.22 665.625 1104.22 670.625V709.219ZM784.531 36.5625L801.406 26.7188L801.719 26.0938C802.297 24.9547 802.572 23.6855 802.516 22.4092C802.46 21.1329 802.076 19.8925 801.4 18.8083C800.724 17.7241 799.78 16.8326 798.659 16.2202C797.538 15.6078 796.277 15.2951 795 15.3125H756.562L752.5 10.9375C747.812 5.62501 741.094 2.50002 734.062 2.34377L676.875 0C673.125 0.625 669.375 1.40627 665.625 2.03127L631.719 16.25C628.906 17.5 625.937 18.125 622.812 18.2813L568.438 20.9375C564.375 21.0938 560.469 22.3438 556.875 24.2188L526.406 41.4063C525.905 41.6906 525.482 42.0965 525.179 42.5867C524.875 43.0769 524.7 43.6356 524.668 44.2114C524.637 44.7872 524.752 45.3616 525.001 45.8817C525.25 46.4018 525.626 46.8508 526.094 47.1875C528.437 48.9063 527.656 52.6562 524.844 53.2812L501.094 59.2188C498.75 59.8438 497.812 62.5 498.906 64.375L506.875 77.3438C507.344 78.125 508.281 78.75 509.219 78.9063L551.875 86.25C558.437 87.3438 564.219 90.9375 568.281 96.25L597.656 134.844L606.25 146.563C609.375 150.781 608.906 156.563 605.469 160.313L598.906 167.188C595.781 170.469 595.156 175.312 597.188 179.375L618.594 222.188C620.469 226.094 624.062 228.906 628.125 230.156C641.406 234.062 655.469 226.875 660.156 213.75L665.781 197.812C666.562 195.469 668.281 193.438 670.469 192.031L694.375 171.719C697.344 169.219 700.781 167.5 704.375 166.406L741.875 156.25C749.844 154.062 756.25 148.438 759.219 140.781L776.875 97.0313C779.531 90.625 779.375 83.4375 776.719 77.0313L773.281 68.9062C768.437 57.1875 773.125 43.2812 784.531 36.5625V36.5625ZM472.031 74.5313L479.219 61.875C481.719 57.5 485.156 54.0625 489.531 51.7188L548.594 19.0625L541.875 11.4062L474.844 7.34377C472.969 7.18752 470.937 7.34378 469.062 7.65628L403.75 18.125C399.844 18.75 396.094 20.1563 392.812 22.5C379.687 31.4063 377.344 49.8438 387.656 61.875L402.344 78.9063C407.344 84.8438 414.844 88.125 422.5 88.125H448.75C458.438 88.125 467.344 82.9688 472.031 74.5313V74.5313ZM546.562 193.75L552.656 186.719C554.219 184.844 553.906 182.031 551.875 180.781L532.812 167.344L466.25 118.125C463.437 116.094 460.156 115 456.719 115H430.469C426.25 115 422.344 116.563 419.375 119.531L405.469 132.969C404.71 133.657 404.252 134.616 404.193 135.639C404.135 136.662 404.481 137.667 405.156 138.438L412.969 148.281C413.75 149.375 415.156 150 416.562 149.844L424.062 149.219C426.406 149.063 428.281 150.781 428.437 152.969L428.75 157.344C428.75 157.969 428.75 158.594 428.437 159.219L425 167.656C424.375 169.062 424.687 170.781 425.625 171.875L433.906 181.563C434.687 182.5 435.937 183.125 437.187 182.969L445.156 182.656C447.344 182.5 449.063 180.781 449.063 178.594V161.562C449.063 159.375 450.781 157.656 452.812 157.5L463.906 156.719C464.844 156.719 465.937 156.875 466.719 157.5L487.031 172.969C488.594 174.219 489.062 176.25 488.281 177.969L481.562 191.406C480.937 192.656 479.687 193.594 478.125 193.594L471.719 194.063C469.844 194.219 468.437 195.469 467.969 197.188C467.5 199.688 469.219 202.031 471.719 202.188L485.469 203.281C488.281 203.438 491.094 204.531 493.438 206.094L517.656 222.969C519.219 224.062 521.25 223.906 522.656 222.656L530.312 216.25C530.937 215.781 531.406 215 531.562 214.219L534.062 204.531C534.375 203.437 534.219 202.188 533.594 201.25L525.312 188.438L527.969 187.969C528.906 187.813 530 187.969 530.781 188.438L541.406 194.688C542.969 195.625 545.156 195.313 546.562 193.75V193.75ZM243.594 145.625V131.719H251.875L264.062 148.75C265.625 150.781 267.5 152.5 269.844 153.75L285.781 161.719C287.969 162.813 290.469 163.438 292.969 163.438H342.344V147.031L324.062 140.625L302.969 129.375C300.156 129.375 297.5 128.594 295.156 127.344L261.406 108.125C259.03 106.763 256.332 106.062 253.594 106.094H233.281C226.406 106.094 220.312 110.469 218.125 117.031L216.406 122.5C214.531 128.125 216.094 134.531 220.312 138.75L227.5 145.937H243.594V145.625ZM313.75 118.438L326.719 111.719C328.906 110.625 331.406 110 334.062 110H341.094C347.187 110 352.812 113.438 355.469 119.063L360.625 129.688V140.625H337.187V126.719L327.344 121.719L315.625 122.031L313.75 118.438V118.438ZM358.594 110L370.312 129.063L379.531 134.531H393.125L406.719 120.156L396.406 106.719L370 110H358.594ZM282.812 80.9375L301.25 87.5C302.5 87.9688 303.594 88.4375 304.687 89.2188L317.5 97.6562C319.687 99.0625 322.031 100 324.687 100.156L347.969 102.5L345.156 88.125L317.344 72.8125C315 71.5625 312.344 70.7813 309.687 70.7813H295.469L282.812 80.9375V80.9375ZM873.906 198.437L880.625 209.063C881.25 210 881.25 211.406 880.469 212.344L875.312 219.375C874.844 220.156 874.531 221.094 874.844 221.875L876.875 228.906C877.031 229.531 877.344 230 877.812 230.313L888.594 238.594C895.937 244.219 896.875 255 890.625 261.875L890.469 262.031C887.5 265.312 883.125 267.344 878.594 267.344H865.781C863.906 267.344 862.5 265.625 862.969 263.75L866.25 250.938C866.406 250.156 867.031 249.375 867.812 249.063L873.594 246.25C874.687 245.781 875.312 244.531 875.156 243.281L874.844 239.844C874.757 239.237 874.486 238.671 874.066 238.224C873.647 237.777 873.1 237.469 872.5 237.344L864.219 235.625C863.598 235.498 862.953 235.583 862.386 235.866C861.819 236.149 861.364 236.615 861.094 237.187L859.219 241.25C859.219 241.406 859.062 241.563 859.062 241.719L855 255.469C854.687 256.719 853.437 257.5 852.187 257.5L839.219 257.188C838.473 257.188 837.757 256.891 837.23 256.364C836.703 255.836 836.406 255.121 836.406 254.375V239.687C836.406 238.125 837.656 236.875 839.219 236.875L845.937 236.719C846.875 236.719 847.656 236.25 848.281 235.469L854.531 226.406C854.844 225.938 855 225.313 855 224.688V210.937C855 210 855.469 209.219 856.094 208.75L869.687 197.812C870.937 196.719 872.969 197.031 873.906 198.437V198.437Z" fill="url(#paint3_linear_2_4)"/>
<path d="M727.031 176.25H716.563L710 183.906L727.969 197.969C731.25 200.625 735.469 201.719 739.688 201.25L760.156 198.75V185.469L756.25 176.094L735 181.563L727.031 176.25ZM924.219 63.9063H951.25C954.531 63.9063 957.656 64.8438 960.313 66.7188L988.281 86.25L984.531 91.875L960.938 79.8438L951.25 97.5001H940.781L917.656 68.4375L924.219 63.9063ZM973.75 43.1251H1008.75L1017.66 49.8438L1008.75 59.0626H990C986.563 59.0626 983.281 57.9688 980.625 55.9376L970.469 48.4376L973.75 43.1251V43.1251ZM333.281 52.5L356.406 43.9063L370 50.9376L376.719 63.5938L368.281 65.1563L342.969 73.125L310.938 58.125L333.281 52.5ZM390 90.4688H400L405.156 96.0938H458.594L462.969 102.5L460.156 108.438L410.469 110L404.844 103.75L396.562 102.5L395.312 97.3438L390 95.4688V90.4688ZM351.094 91.4063L355 102.5L365.156 103.281L373.438 93.75L369.844 90.4688L355 89.2188L351.094 91.4063ZM378.594 77.8125L376.719 84.0625L384.531 86.5625L390 82.1876H393.438V79.3751L386.719 76.5626L382.656 75.0001L378.594 77.8125ZM440.625 478.906L450.313 474.688H476.25L496.406 489.844C496.406 489.844 505.938 491.094 505.938 493.594C505.938 496.094 496.406 497.344 496.406 497.344H482.5L462.969 484.063L450.938 485.938L440.625 481.719C439.375 481.406 439.375 479.531 440.625 478.906V478.906ZM507.813 502.813C506.719 500.313 515.469 495.156 515.469 495.156C515.469 495.156 529.531 491.563 531.563 495.156C532.656 497.188 526.563 502.813 526.563 502.813C526.563 502.813 509.688 507.188 507.813 502.813ZM1626.09 803.125H1658.91L1642.5 822.188H1634.84L1626.09 803.125Z" fill="url(#paint4_linear_2_4)"/>
<defs>
<linearGradient id="paint0_linear_2_4" x1="20.2732" y1="378.779" x2="801.136" y2="399.43" gradientUnits="userSpaceOnUse">
<stop stop-color="#39C188"/>
<stop offset="1" stop-color="#E2FF1F"/>
</linearGradient>
<linearGradient id="paint1_linear_2_4" x1="811.419" y1="270.442" x2="1690.27" y2="299.285" gradientUnits="userSpaceOnUse">
<stop stop-color="#39C188"/>
<stop offset="1" stop-color="#E2FF1F"/>
</linearGradient>
<linearGradient id="paint2_linear_2_4" x1="1380.18" y1="617.559" x2="1635.03" y2="624.691" gradientUnits="userSpaceOnUse">
<stop stop-color="#39C188"/>
<stop offset="1" stop-color="#E2FF1F"/>
</linearGradient>
<linearGradient id="paint3_linear_2_4" x1="246.128" y1="216.413" x2="1419.7" y2="267.523" gradientUnits="userSpaceOnUse">
<stop stop-color="#39C188"/>
<stop offset="1" stop-color="#E2FF1F"/>
</linearGradient>
<linearGradient id="paint4_linear_2_4" x1="339.279" y1="278.106" x2="1430.17" y2="318.758" gradientUnits="userSpaceOnUse">
<stop stop-color="#39C188"/>
<stop offset="1" stop-color="#E2FF1F"/>
</linearGradient>
</defs>
</svg>
