<svg width="780" height="277" viewBox="0 0 780 277" fill="none" xmlns="http://www.w3.org/2000/svg">
<path d="M76.8643 54.9091H99.929V125.754C99.929 133.709 98.0291 140.669 94.2294 146.635C90.4652 152.601 85.1918 157.253 78.4091 160.591C71.6264 163.893 63.7251 165.545 54.7053 165.545C45.6499 165.545 37.7308 163.893 30.9482 160.591C24.1655 157.253 18.892 152.601 15.1278 146.635C11.3636 140.669 9.48153 133.709 9.48153 125.754V54.9091H32.5462V123.783C32.5462 127.938 33.4517 131.631 35.2628 134.863C37.1094 138.094 39.7017 140.634 43.0398 142.48C46.3778 144.327 50.2663 145.25 54.7053 145.25C59.1797 145.25 63.0682 144.327 66.3707 142.48C69.7088 140.634 72.2834 138.094 74.0945 134.863C75.9411 131.631 76.8643 127.938 76.8643 123.783V54.9091ZM141.171 116.699V164H118.479V82.1818H140.106V96.6172H141.064C142.876 91.8587 145.912 88.0945 150.173 85.3246C154.434 82.5192 159.601 81.1165 165.674 81.1165C171.356 81.1165 176.309 82.3594 180.535 84.8452C184.761 87.331 188.046 90.8821 190.39 95.4986C192.733 100.08 193.905 105.548 193.905 111.905V164H171.214V115.953C171.249 110.946 169.971 107.04 167.378 104.234C164.786 101.393 161.217 99.973 156.672 99.973C153.618 99.973 150.919 100.63 148.575 101.944C146.267 103.258 144.456 105.175 143.142 107.697C141.863 110.183 141.206 113.183 141.171 116.699ZM211.79 164V82.1818H234.482V164H211.79ZM223.189 71.6349C219.815 71.6349 216.921 70.5163 214.506 68.2791C212.127 66.0064 210.938 63.2898 210.938 60.1293C210.938 57.0043 212.127 54.3232 214.506 52.0859C216.921 49.8132 219.815 48.6768 223.189 48.6768C226.563 48.6768 229.439 49.8132 231.818 52.0859C234.233 54.3232 235.44 57.0043 235.44 60.1293C235.44 63.2898 234.233 66.0064 231.818 68.2791C229.439 70.5163 226.563 71.6349 223.189 71.6349ZM289.626 165.598C281.246 165.598 274.037 163.822 268 160.271C261.998 156.685 257.382 151.713 254.15 145.357C250.954 139 249.356 131.685 249.356 123.411C249.356 115.03 250.972 107.679 254.204 101.358C257.471 95.0014 262.105 90.0476 268.106 86.4964C274.108 82.9098 281.246 81.1165 289.52 81.1165C296.657 81.1165 302.907 82.4126 308.27 85.005C313.632 87.5973 317.876 91.2372 321.001 95.9247C324.126 100.612 325.848 106.116 326.167 112.438H304.754C304.15 108.354 302.552 105.069 299.96 102.583C297.403 100.062 294.047 98.8011 289.893 98.8011C286.377 98.8011 283.305 99.7599 280.677 101.678C278.085 103.56 276.061 106.312 274.605 109.934C273.149 113.556 272.421 117.942 272.421 123.091C272.421 128.311 273.131 132.75 274.552 136.408C276.008 140.065 278.05 142.853 280.677 144.771C283.305 146.688 286.377 147.647 289.893 147.647C292.485 147.647 294.811 147.114 296.871 146.049C298.966 144.984 300.688 143.439 302.037 141.415C303.422 139.355 304.328 136.887 304.754 134.011H326.167C325.812 140.261 324.108 145.765 321.054 150.523C318.035 155.246 313.863 158.94 308.536 161.603C303.209 164.266 296.906 165.598 289.626 165.598ZM363.388 54.9091V164H340.696V54.9091H363.388ZM434.033 129.163V82.1818H456.725V164H434.939V149.138H434.086C432.24 153.933 429.168 157.786 424.871 160.697C420.61 163.609 415.407 165.065 409.264 165.065C403.795 165.065 398.983 163.822 394.829 161.337C390.674 158.851 387.425 155.317 385.081 150.737C382.773 146.156 381.601 140.669 381.565 134.277V82.1818H404.257V130.229C404.292 135.058 405.589 138.876 408.145 141.681C410.702 144.487 414.129 145.889 418.426 145.889C421.16 145.889 423.717 145.268 426.096 144.025C428.476 142.746 430.393 140.864 431.849 138.379C433.341 135.893 434.069 132.821 434.033 129.163ZM475.302 164V54.9091H497.994V95.9247H498.686C499.68 93.723 501.119 91.4858 503.001 89.2131C504.918 86.9048 507.404 84.9872 510.458 83.4602C513.548 81.8977 517.383 81.1165 521.964 81.1165C527.93 81.1165 533.434 82.679 538.477 85.804C543.519 88.8935 547.55 93.5632 550.568 99.8132C553.587 106.028 555.096 113.822 555.096 123.197C555.096 132.324 553.622 140.03 550.675 146.315C547.763 152.565 543.786 157.306 538.743 160.538C533.736 163.734 528.125 165.332 521.911 165.332C517.507 165.332 513.761 164.604 510.671 163.148C507.617 161.692 505.114 159.863 503.161 157.661C501.207 155.424 499.716 153.169 498.686 150.896H497.674V164H475.302ZM497.514 123.091C497.514 127.956 498.189 132.2 499.538 135.822C500.888 139.444 502.841 142.267 505.398 144.291C507.955 146.28 511.062 147.274 514.719 147.274C518.413 147.274 521.538 146.262 524.094 144.238C526.651 142.178 528.587 139.337 529.901 135.715C531.25 132.058 531.925 127.849 531.925 123.091C531.925 118.368 531.268 114.213 529.954 110.626C528.64 107.04 526.705 104.234 524.148 102.21C521.591 100.186 518.448 99.174 514.719 99.174C511.026 99.174 507.901 100.151 505.344 102.104C502.823 104.057 500.888 106.827 499.538 110.413C498.189 114 497.514 118.226 497.514 123.091Z" fill="white"/>
<path d="M631 0C597.304 0 570 26.2071 570 58.6692C570 114.799 631 188 631 188C631 188 692 114.787 692 58.6692C692 26.2189 664.696 0 631 0ZM631 91.1312C622.264 91.1312 613.885 87.7867 607.708 81.8334C601.53 75.8801 598.06 67.8056 598.06 59.3864C598.06 50.9671 601.53 42.8927 607.708 36.9394C613.885 30.9861 622.264 27.6415 631 27.6415C639.736 27.6415 648.115 30.9861 654.292 36.9394C660.47 42.8927 663.94 50.9671 663.94 59.3864C663.94 67.8056 660.47 75.8801 654.292 81.8334C648.115 87.7867 639.736 91.1312 631 91.1312Z" fill="url(#paint0_linear_16_10)"/>
<path d="M630.5 49L640.581 55.91M630.5 49L620.419 55.91M630.5 49V41.5M640.581 55.91L636.73 67.09M640.581 55.91L647.725 52.75M636.73 67.09H624.272M636.733 67.09L641.1 72.75M624.27 67.09L620.419 55.91M624.27 67.09L619.9 72.75M620.419 55.91L613.275 52.75M613.275 52.75L604.132 61.5M613.275 52.75L610.625 42.4625M647.725 52.75L656.868 61.5M647.725 52.75L650.375 42.4625M630.5 41.5L621.554 35.46M630.5 41.5L639.446 35.46M619.9 72.75L607.546 71.5M619.9 72.75L626.525 83.72M641.1 72.75L653.454 71.5M641.1 72.75L634.475 83.72M657 59C657 72.8075 645.136 84 630.5 84C615.864 84 604 72.8075 604 59C604 45.1925 615.864 34 630.5 34C645.136 34 657 45.1925 657 59Z" stroke="url(#paint1_linear_16_10)" stroke-width="3.125" stroke-linecap="round" stroke-linejoin="round"/>
<path d="M6.4585 208.873H672.5" stroke="url(#paint2_linear_16_10)" stroke-width="7" stroke-linecap="round"/>
<defs>
<linearGradient id="paint0_linear_16_10" x1="631" y1="-0.00041537" x2="631" y2="188" gradientUnits="userSpaceOnUse">
<stop stop-color="#34FA7D"/>
<stop offset="1" stop-color="#0BA967"/>
</linearGradient>
<linearGradient id="paint1_linear_16_10" x1="612.398" y1="41.9232" x2="651.106" y2="68.4424" gradientUnits="userSpaceOnUse">
<stop stop-color="#0BA967"/>
<stop offset="1" stop-color="#34FA7D" stop-opacity="0.75"/>
</linearGradient>
<linearGradient id="paint2_linear_16_10" x1="6" y1="209.003" x2="673" y2="209" gradientUnits="userSpaceOnUse">
<stop stop-color="#34FA7D"/>
<stop offset="1" stop-color="#0BA967"/>
</linearGradient>
</defs>
</svg>
