<svg width="437" height="588" viewBox="0 0 437 588" fill="none" xmlns="http://www.w3.org/2000/svg">
<path d="M287.091 415H281.364C281.038 415 280.726 415.284 280.496 415.791C280.266 416.297 280.136 416.984 280.136 417.7V457.3C280.136 457.655 280.168 458.006 280.23 458.333C280.291 458.661 280.382 458.958 280.496 459.209C280.61 459.46 280.745 459.659 280.894 459.794C281.043 459.93 281.202 460 281.364 460H287.091C287.252 460 287.412 459.93 287.561 459.794C287.709 459.659 287.845 459.46 287.959 459.209C288.073 458.958 288.163 458.661 288.225 458.333C288.286 458.006 288.318 457.655 288.318 457.3V417.7C288.318 416.984 288.189 416.297 287.959 415.791C287.729 415.284 287.416 415 287.091 415V415ZM311.636 415H305.909C305.584 415 305.271 415.284 305.041 415.791C304.811 416.297 304.682 416.984 304.682 417.7V457.3C304.682 457.655 304.714 458.006 304.775 458.333C304.837 458.661 304.927 458.958 305.041 459.209C305.155 459.46 305.291 459.659 305.439 459.794C305.588 459.93 305.748 460 305.909 460H311.636C311.798 460 311.957 459.93 312.106 459.794C312.255 459.659 312.39 459.46 312.504 459.209C312.618 458.958 312.709 458.661 312.77 458.333C312.832 458.006 312.864 457.655 312.864 457.3V417.7C312.864 416.984 312.734 416.297 312.504 415.791C312.274 415.284 311.962 415 311.636 415V415Z" stroke="url(#paint0_linear_65_21)" stroke-width="3" stroke-linecap="round" stroke-linejoin="round"/>
<path d="M288.318 437.5H304.682M274 448.3V426.7C274 425.984 274.129 425.297 274.359 424.791C274.59 424.284 274.902 424 275.227 424H278.909C279.235 424 279.547 424.284 279.777 424.791C280.007 425.297 280.136 425.984 280.136 426.7V448.3C280.136 449.016 280.007 449.703 279.777 450.209C279.547 450.716 279.235 451 278.909 451H275.227C274.902 451 274.59 450.716 274.359 450.209C274.129 449.703 274 449.016 274 448.3V448.3ZM319 448.3V426.7C319 425.984 318.871 425.297 318.641 424.791C318.41 424.284 318.098 424 317.773 424H314.091C313.765 424 313.453 424.284 313.223 424.791C312.993 425.297 312.864 425.984 312.864 426.7V448.3C312.864 449.016 312.993 449.703 313.223 450.209C313.453 450.716 313.765 451 314.091 451H317.773C318.098 451 318.41 450.716 318.641 450.209C318.871 449.703 319 449.016 319 448.3V448.3Z" stroke="url(#paint1_linear_65_21)" stroke-width="3" stroke-linecap="round" stroke-linejoin="round"/>
<path d="M216 276C232.569 276 246 262.569 246 246C246 229.431 232.569 216 216 216C199.431 216 186 229.431 186 246C186 262.569 199.431 276 216 276Z" stroke="url(#paint2_linear_65_21)" stroke-width="4"/>
<path d="M216 216C215.849 226.002 213.393 233.504 208.633 238.507C203.872 243.509 196.328 246.011 186 246.012" stroke="url(#paint3_linear_65_21)" stroke-width="4" stroke-linecap="round" stroke-linejoin="round"/>
<path d="M245.952 247.508C236.184 246.838 228.719 248.926 223.559 253.772C218.399 258.618 215.881 266.027 216.004 276" stroke="url(#paint4_linear_65_21)" stroke-width="4" stroke-linecap="round"/>
<path d="M85.4688 268.5C83.3364 268.5 81.252 267.868 79.479 266.683C77.706 265.498 76.3242 263.815 75.5082 261.845C74.6922 259.875 74.4787 257.707 74.8947 255.616C75.3107 253.524 76.3375 251.603 77.8453 250.095C79.353 248.588 81.2741 247.561 83.3654 247.145C85.4568 246.729 87.6245 246.942 89.5946 247.758C91.5646 248.574 93.2484 249.956 94.433 251.729C95.6177 253.502 96.25 255.587 96.25 257.719C96.2469 260.577 95.11 263.318 93.0888 265.339C91.0676 267.36 88.3272 268.497 85.4688 268.5V268.5ZM85.4688 250.688C84.0781 250.688 82.7187 251.1 81.5624 251.873C80.4061 252.645 79.5049 253.743 78.9727 255.028C78.4405 256.313 78.3013 257.727 78.5726 259.091C78.8439 260.455 79.5136 261.707 80.4969 262.691C81.4802 263.674 82.7331 264.344 84.097 264.615C85.461 264.886 86.8747 264.747 88.1595 264.215C89.4443 263.683 90.5424 262.782 91.315 261.625C92.0876 260.469 92.5 259.11 92.5 257.719C92.4978 255.855 91.7563 254.068 90.4382 252.749C89.1201 251.431 87.3329 250.69 85.4688 250.688V250.688ZM54.5313 268.5C52.3989 268.5 50.3145 267.868 48.5415 266.683C46.7685 265.498 45.3867 263.815 44.5707 261.845C43.7547 259.875 43.5412 257.707 43.9572 255.616C44.3732 253.524 45.4 251.603 46.9078 250.095C48.4155 248.588 50.3366 247.561 52.4279 247.145C54.5193 246.729 56.687 246.942 58.6571 247.758C60.6271 248.574 62.3109 249.956 63.4955 251.729C64.6802 253.502 65.3125 255.587 65.3125 257.719C65.3094 260.577 64.1725 263.318 62.1513 265.339C60.1301 267.36 57.3897 268.497 54.5313 268.5V268.5ZM54.5313 250.688C53.1406 250.688 51.7812 251.1 50.6249 251.873C49.4686 252.645 48.5674 253.743 48.0352 255.028C47.503 256.313 47.3638 257.727 47.6351 259.091C47.9064 260.455 48.5761 261.707 49.5594 262.691C50.5427 263.674 51.7956 264.344 53.1595 264.615C54.5235 264.886 55.9372 264.747 57.222 264.215C58.5068 263.683 59.6049 262.782 60.3775 261.625C61.1501 260.469 61.5625 259.11 61.5625 257.719C61.5603 255.855 60.8188 254.068 59.5007 252.749C58.1826 251.431 56.3954 250.69 54.5313 250.688V250.688ZM77.5 231C77.9939 231.002 78.4833 230.906 78.9398 230.717C79.3963 230.528 79.8109 230.251 80.1596 229.901C80.5083 229.552 80.7843 229.136 80.9714 228.679C81.1586 228.222 81.2533 227.732 81.25 227.238C81.2555 226.747 81.1629 226.259 80.9777 225.804C80.7925 225.349 80.5184 224.935 80.1714 224.587C79.8244 224.239 79.4116 223.964 78.9569 223.777C78.5022 223.59 78.0149 223.496 77.5234 223.5C77.031 223.499 76.543 223.594 76.0875 223.781C75.6319 223.968 75.2177 224.243 74.8684 224.59C74.5191 224.937 74.2415 225.35 74.0517 225.804C73.8618 226.259 73.7633 226.746 73.7617 227.238C73.7602 227.731 73.8557 228.219 74.0427 228.674C74.2297 229.13 74.5047 229.544 74.8518 229.893C75.1989 230.243 75.6115 230.52 76.0658 230.71C76.5202 230.9 77.0075 230.999 77.5 231V231Z" fill="url(#paint5_linear_65_21)"/>
<path d="M83.0723 238.5H77.9441C77.86 238.5 77.7774 238.478 77.7051 238.435C77.6327 238.392 77.5732 238.33 77.5328 238.256L73.8133 231.44C73.5512 230.933 73.1735 230.495 72.7108 230.162C72.2481 229.828 71.7134 229.608 71.1499 229.52C70.5865 229.432 70.0101 229.477 69.4675 229.653C68.9249 229.828 68.4312 230.13 68.0266 230.531L59.8398 238.781C59.1521 239.483 58.7617 240.424 58.75 241.406C58.75 243.446 60.2266 244.172 60.918 244.582C64.2578 246.506 66.6098 247.914 67.9 248.696C67.9686 248.737 68.0253 248.796 68.0647 248.866C68.1041 248.936 68.1249 249.015 68.125 249.095V257.195C68.125 258.204 68.9008 259.07 69.9098 259.121C70.1631 259.133 70.4163 259.093 70.6539 259.005C70.8916 258.917 71.1089 258.781 71.2926 258.606C71.4763 258.431 71.6227 258.221 71.7228 257.988C71.8229 257.755 71.8747 257.504 71.875 257.25V247.172C71.8752 246.874 71.8045 246.581 71.6688 246.316C71.533 246.051 71.3362 245.822 71.0945 245.649L66.7586 242.53C66.7042 242.491 66.6587 242.441 66.6253 242.383C66.5919 242.325 66.5712 242.261 66.5648 242.194C66.5583 242.128 66.5662 242.06 66.588 241.997C66.6097 241.934 66.6447 241.876 66.6906 241.827L71.6125 236.578C71.663 236.524 71.7255 236.483 71.795 236.458C71.8644 236.433 71.9389 236.424 72.0122 236.433C72.0856 236.442 72.1558 236.468 72.2171 236.51C72.2783 236.551 72.329 236.606 72.3648 236.671L74.9219 241.286C75.0844 241.578 75.3222 241.822 75.6107 241.992C75.8992 242.161 76.2279 242.25 76.5625 242.25H83.125C83.379 242.25 83.6304 242.199 83.864 242.099C84.0976 242 84.3084 241.853 84.4838 241.67C84.6591 241.486 84.7953 241.268 84.884 241.03C84.9728 240.792 85.0122 240.539 85 240.285C84.9508 239.276 84.0812 238.5 83.0723 238.5Z" fill="url(#paint6_linear_65_21)"/>
<path d="M167.66 443.61C169.171 439.956 169.965 436.045 170 432.091V431.941C169.991 427.342 168.925 422.806 166.883 418.685C164.842 414.563 161.881 410.967 158.228 408.172C154.575 405.378 150.328 403.461 145.816 402.569C141.304 401.678 136.648 401.835 132.206 403.03C127.765 404.225 123.658 406.425 120.202 409.46C116.747 412.495 114.035 416.284 112.278 420.534C110.52 424.784 109.763 429.381 110.065 433.97C110.367 438.559 111.72 443.017 114.02 447C114.594 447.996 115.225 448.958 115.91 449.88L116.06 450.09C120.078 455.429 125.772 459.264 132.23 460.98C134.784 461.66 137.417 462.003 140.06 462C145.885 461.989 151.581 460.281 156.451 457.084C161.321 453.887 165.153 449.341 167.48 444C167.558 443.879 167.618 443.748 167.66 443.61V443.61ZM127.25 407.521C130.094 406.025 133.183 405.05 136.37 404.641C141.326 406.931 145.493 410.638 148.344 415.294C151.195 419.949 152.603 425.345 152.39 430.801H140.69L127.25 407.521ZM140.69 433.201H167.57C167.415 436.418 166.705 439.585 165.47 442.56C161.013 445.702 155.725 447.452 150.273 447.591C144.822 447.73 139.451 446.251 134.84 443.34L140.69 433.201ZM163.91 418.201C166.121 422.047 167.376 426.368 167.57 430.801H154.79C154.988 425.576 153.815 420.391 151.389 415.76C148.963 411.129 145.368 407.213 140.96 404.401C143.047 404.488 145.119 404.8 147.14 405.331C150.646 406.265 153.932 407.882 156.811 410.091C159.689 412.3 162.101 415.056 163.91 418.201V418.201ZM125.18 408.721L131.57 419.791C126.952 422.229 123.05 425.831 120.251 430.241C117.451 434.65 115.852 439.713 115.61 444.93C112.374 438.794 111.561 431.666 113.334 424.96C115.107 418.253 119.335 412.457 125.18 408.721V408.721ZM118.1 448.8C117.618 443.364 118.754 437.907 121.364 433.114C123.974 428.321 127.942 424.406 132.77 421.861L138.62 432.001L125.18 455.28C122.452 453.561 120.054 451.366 118.1 448.8V448.8ZM153.8 455.91C149.781 458.235 145.24 459.507 140.598 459.607C135.956 459.706 131.365 458.631 127.25 456.48L133.64 445.41C138.419 448.419 143.953 450.011 149.6 450C154.395 450.018 159.122 448.864 163.37 446.64C160.996 450.474 157.707 453.659 153.8 455.91Z" fill="url(#paint7_linear_65_21)"/>
<path d="M364.466 216C371.751 216 378.737 218.894 383.888 224.045C389.039 229.196 391.932 236.182 391.932 243.466C391.939 247.736 390.946 251.948 389.033 255.765L396.153 262.889C396.696 263.431 397 264.167 397 264.933C397 265.7 396.696 266.435 396.153 266.977L387.977 275.153C387.435 275.696 386.7 276 385.933 276C385.167 276 384.431 275.696 383.889 275.153L376.765 268.033C372.948 269.946 368.736 270.939 364.466 270.932C357.182 270.932 350.196 268.039 345.045 262.888C339.894 257.737 337 250.751 337 243.466C337 236.182 339.894 229.196 345.045 224.045C350.196 218.894 357.182 216 364.466 216V216ZM379.798 254.707L375.71 258.795L385.933 269.016L390.021 264.927L379.798 254.707V254.707ZM385.187 237.056L358.056 264.187C360.133 264.827 362.293 265.152 364.466 265.15C367.177 265.154 369.864 264.648 372.388 263.658L369.578 260.842C369.036 260.3 368.731 259.565 368.731 258.798C368.731 258.031 369.036 257.296 369.578 256.754L377.754 248.578C378.296 248.036 379.031 247.731 379.798 247.731C380.565 247.731 381.3 248.036 381.842 248.578L384.658 251.388C385.648 248.864 386.154 246.177 386.15 243.466C386.15 241.234 385.812 239.083 385.187 237.056ZM364.466 221.782C359.805 221.782 355.267 223.284 351.526 226.065C347.785 228.846 345.04 232.759 343.698 237.223C342.356 241.687 342.488 246.465 344.075 250.848C345.662 255.231 348.619 258.986 352.508 261.556L382.556 231.508C380.581 228.517 377.894 226.063 374.737 224.365C371.58 222.668 368.051 221.78 364.466 221.782V221.782Z" fill="url(#paint8_linear_65_21)"/>
<path d="M310.028 48.7205C304.96 44.5858 298.677 42.2252 292.14 42C292.775 45.7498 292.612 49.5914 291.661 53.2739C290.71 56.9563 288.993 60.3967 286.622 63.3702L291 67.7482L310.028 48.7205ZM278.073 63.3251L267.72 52.9722C264.396 57.0462 262.205 61.9253 261.37 67.1168C264.264 67.6896 267.247 67.648 270.124 66.9949C273.002 66.3417 275.71 65.0914 278.073 63.3251ZM314.28 52.9722L295.252 72L299.63 76.3781C302.604 74.0073 306.044 72.2905 309.726 71.3397C313.409 70.3889 317.25 70.2256 321 70.8604C320.775 64.3235 318.414 58.0404 314.28 52.9722ZM320.63 76.8832C317.736 76.3104 314.753 76.352 311.876 77.0051C308.998 77.6583 306.29 78.9086 303.927 80.675L314.28 91.0278C317.606 86.9548 319.797 82.0753 320.63 76.8832ZM282.325 59.0733C284.091 56.7098 285.342 54.0017 285.995 51.1243C286.648 48.2468 286.69 45.2643 286.117 42.3699C280.925 43.204 276.045 45.3948 271.972 48.7205L282.325 59.0733ZM295.883 101.63C301.074 100.796 305.954 98.6062 310.028 95.2826L299.675 84.9297C297.908 87.2925 296.658 90.0001 296.005 92.8771C295.351 95.754 295.31 98.7362 295.883 101.63ZM291 76.2518L271.972 95.2795C277.04 99.4142 283.323 101.775 289.86 102C289.225 98.2502 289.388 94.4086 290.339 90.7262C291.29 87.0437 293.007 83.6033 295.378 80.6299L291 76.2518ZM267.72 91.0278L286.748 72L282.37 67.6219C279.396 69.9927 275.956 71.7095 272.274 72.6603C268.591 73.6111 264.75 73.7744 261 73.1396C261.225 79.6765 263.586 85.9596 267.72 91.0278Z" fill="url(#paint9_linear_65_21)"/>
<path d="M142 58L153.412 66.292M142 58L130.588 66.292M142 58V49M153.412 66.292L149.053 79.708M153.412 66.292L161.5 62.5M149.053 79.708H134.95M149.056 79.708L154 86.5M134.947 79.708L130.588 66.292M134.947 79.708L130 86.5M130.588 66.292L122.5 62.5M122.5 62.5L112.15 73M122.5 62.5L119.5 50.155M161.5 62.5L171.85 73M161.5 62.5L164.5 50.155M142 49L131.872 41.752M142 49L152.128 41.752M130 86.5L116.014 85M130 86.5L137.5 99.664M154 86.5L167.986 85M154 86.5L146.5 99.664M172 70C172 86.569 158.569 100 142 100C125.431 100 112 86.569 112 70C112 53.431 125.431 40 142 40C158.569 40 172 53.431 172 70Z" stroke="url(#paint10_linear_65_21)" stroke-width="3.125" stroke-linecap="round" stroke-linejoin="round"/>
<path d="M216.5 176C177.556 176 146 206.808 146 244.968C146 310.95 216.5 397 216.5 397C216.5 397 287 310.936 287 244.968C287 206.821 255.444 176 216.5 176ZM216.5 283.128C206.403 283.128 196.72 279.196 189.58 272.198C182.441 265.2 178.43 255.708 178.43 245.811C178.43 235.914 182.441 226.422 189.58 219.424C196.72 212.425 206.403 208.494 216.5 208.494C226.597 208.494 236.28 212.425 243.42 219.424C250.559 226.422 254.57 235.914 254.57 245.811C254.57 255.708 250.559 265.2 243.42 272.198C236.28 279.196 226.597 283.128 216.5 283.128Z" fill="url(#paint11_linear_65_21)"/>
<path d="M291.5 2C252.556 2 221 32.8073 221 70.9675C221 136.95 291.5 223 291.5 223C291.5 223 362 136.936 362 70.9675C362 32.8211 330.444 2 291.5 2ZM291.5 109.128C281.403 109.128 271.72 105.196 264.58 98.1977C257.441 91.1994 253.43 81.7077 253.43 71.8106C253.43 61.9135 257.441 52.4217 264.58 45.4234C271.72 38.4251 281.403 34.4935 291.5 34.4935C301.597 34.4935 311.28 38.4251 318.42 45.4234C325.559 52.4217 329.57 61.9135 329.57 71.8106C329.57 81.7077 325.559 91.1994 318.42 98.1977C311.28 105.196 301.597 109.128 291.5 109.128Z" fill="url(#paint12_linear_65_21)"/>
<path d="M366.5 176C327.556 176 296 206.808 296 244.968C296 310.95 366.5 397 366.5 397C366.5 397 437 310.936 437 244.968C437 206.821 405.444 176 366.5 176ZM366.5 283.128C356.403 283.128 346.72 279.196 339.58 272.198C332.441 265.2 328.43 255.708 328.43 245.811C328.43 235.914 332.441 226.422 339.58 219.424C346.72 212.425 356.403 208.494 366.5 208.494C376.597 208.494 386.28 212.425 393.42 219.424C400.559 226.422 404.57 235.914 404.57 245.811C404.57 255.708 400.559 265.2 393.42 272.198C386.28 279.196 376.597 283.128 366.5 283.128Z" fill="url(#paint13_linear_65_21)"/>
<path d="M296.5 367C257.556 367 226 397.807 226 435.967C226 501.95 296.5 588 296.5 588C296.5 588 367 501.936 367 435.967C367 397.821 335.444 367 296.5 367ZM296.5 474.128C286.403 474.128 276.72 470.196 269.58 463.198C262.441 456.199 258.43 446.708 258.43 436.811C258.43 426.913 262.441 417.422 269.58 410.423C276.72 403.425 286.403 399.493 296.5 399.493C306.597 399.493 316.28 403.425 323.42 410.423C330.559 417.422 334.57 426.913 334.57 436.811C334.57 446.708 330.559 456.199 323.42 463.198C316.28 470.196 306.597 474.128 296.5 474.128Z" fill="url(#paint14_linear_65_21)"/>
<path d="M142.5 0C103.556 0 72 30.8073 72 68.9675C72 134.95 142.5 221 142.5 221C142.5 221 213 134.936 213 68.9675C213 30.8211 181.444 0 142.5 0ZM142.5 107.128C132.403 107.128 122.72 103.196 115.58 96.1977C108.441 89.1994 104.43 79.7077 104.43 69.8106C104.43 59.9135 108.441 50.4217 115.58 43.4234C122.72 36.4251 132.403 32.4935 142.5 32.4935C152.597 32.4935 162.28 36.4251 169.42 43.4234C176.559 50.4217 180.57 59.9135 180.57 69.8106C180.57 79.7077 176.559 89.1994 169.42 96.1977C162.28 103.196 152.597 107.128 142.5 107.128Z" fill="url(#paint15_linear_65_21)"/>
<path d="M140.5 362.424C101.556 362.424 70 393.231 70 431.391C70 497.373 140.5 583.424 140.5 583.424C140.5 583.424 211 497.36 211 431.391C211 393.245 179.444 362.424 140.5 362.424ZM140.5 469.551C130.403 469.551 120.72 465.62 113.58 458.622C106.441 451.623 102.43 442.131 102.43 432.234C102.43 422.337 106.441 412.846 113.58 405.847C120.72 398.849 130.403 394.917 140.5 394.917C150.597 394.917 160.28 398.849 167.42 405.847C174.559 412.846 178.57 422.337 178.57 432.234C178.57 442.131 174.559 451.623 167.42 458.622C160.28 465.62 150.597 469.551 140.5 469.551Z" fill="url(#paint16_linear_65_21)"/>
<path d="M70.5 176C31.5558 176 0 206.808 0 244.968C0 310.95 70.5 397 70.5 397C70.5 397 141 310.936 141 244.968C141 206.821 109.444 176 70.5 176ZM70.5 283.128C60.4032 283.128 50.72 279.196 43.5804 272.198C36.4409 265.2 32.43 255.708 32.43 245.811C32.43 235.914 36.4409 226.422 43.5804 219.424C50.72 212.425 60.4032 208.494 70.5 208.494C80.5968 208.494 90.28 212.425 97.4196 219.424C104.559 226.422 108.57 235.914 108.57 245.811C108.57 255.708 104.559 265.2 97.4196 272.198C90.28 279.196 80.5968 283.128 70.5 283.128Z" fill="url(#paint17_linear_65_21)"/>
<defs>
<linearGradient id="paint0_linear_65_21" x1="296.5" y1="415" x2="296.5" y2="460" gradientUnits="userSpaceOnUse">
<stop stop-color="#0BA967" stop-opacity="0.5"/>
<stop offset="1" stop-color="#34FA7D"/>
</linearGradient>
<linearGradient id="paint1_linear_65_21" x1="296.5" y1="424" x2="296.5" y2="451" gradientUnits="userSpaceOnUse">
<stop stop-color="#0BA967" stop-opacity="0.5"/>
<stop offset="1" stop-color="#34FA7D"/>
</linearGradient>
<linearGradient id="paint2_linear_65_21" x1="216" y1="216" x2="216" y2="276" gradientUnits="userSpaceOnUse">
<stop stop-color="#0BA967" stop-opacity="0.5"/>
<stop offset="1" stop-color="#34FA7D"/>
</linearGradient>
<linearGradient id="paint3_linear_65_21" x1="201" y1="216" x2="201" y2="246.012" gradientUnits="userSpaceOnUse">
<stop stop-color="#0BA967" stop-opacity="0.5"/>
<stop offset="1" stop-color="#34FA7D"/>
</linearGradient>
<linearGradient id="paint4_linear_65_21" x1="230.976" y1="247.386" x2="230.976" y2="276" gradientUnits="userSpaceOnUse">
<stop stop-color="#0BA967" stop-opacity="0.5"/>
<stop offset="1" stop-color="#34FA7D"/>
</linearGradient>
<linearGradient id="paint5_linear_65_21" x1="70" y1="223.5" x2="70" y2="268.5" gradientUnits="userSpaceOnUse">
<stop stop-color="#0BA967"/>
<stop offset="1" stop-color="#34FA7D"/>
</linearGradient>
<linearGradient id="paint6_linear_65_21" x1="71.8761" y1="229.476" x2="71.8761" y2="259.123" gradientUnits="userSpaceOnUse">
<stop stop-color="#0BA967"/>
<stop offset="1" stop-color="#34FA7D"/>
</linearGradient>
<linearGradient id="paint7_linear_65_21" x1="114" y1="410.5" x2="170" y2="448.5" gradientUnits="userSpaceOnUse">
<stop stop-color="#0BA967" stop-opacity="0.5"/>
<stop offset="1" stop-color="#34FA7D" stop-opacity="0.75"/>
</linearGradient>
<linearGradient id="paint8_linear_65_21" x1="337" y1="222" x2="390" y2="262" gradientUnits="userSpaceOnUse">
<stop stop-color="#0BA967" stop-opacity="0.5"/>
<stop offset="1" stop-color="#34FA7D" stop-opacity="0.75"/>
</linearGradient>
<linearGradient id="paint9_linear_65_21" x1="270.072" y1="49.6289" x2="310.485" y2="84.2686" gradientUnits="userSpaceOnUse">
<stop stop-color="#0BA967" stop-opacity="0.5"/>
<stop offset="1" stop-color="#34FA7D" stop-opacity="0.75"/>
</linearGradient>
<linearGradient id="paint10_linear_65_21" x1="121.508" y1="49.5079" x2="166.923" y2="78.8617" gradientUnits="userSpaceOnUse">
<stop stop-color="#0BA967" stop-opacity="0.5"/>
<stop offset="1" stop-color="#34FA7D" stop-opacity="0.75"/>
</linearGradient>
<linearGradient id="paint11_linear_65_21" x1="216.5" y1="176" x2="216.5" y2="397" gradientUnits="userSpaceOnUse">
<stop stop-color="#34FA7D"/>
<stop offset="1" stop-color="#0BA967"/>
</linearGradient>
<linearGradient id="paint12_linear_65_21" x1="291.5" y1="-0.000488297" x2="291.5" y2="221" gradientUnits="userSpaceOnUse">
<stop stop-color="#34FA7D"/>
<stop offset="1" stop-color="#0BA967"/>
</linearGradient>
<linearGradient id="paint13_linear_65_21" x1="366.5" y1="176" x2="366.5" y2="397" gradientUnits="userSpaceOnUse">
<stop stop-color="#34FA7D"/>
<stop offset="1" stop-color="#0BA967"/>
</linearGradient>
<linearGradient id="paint14_linear_65_21" x1="288.233" y1="330.5" x2="288.233" y2="551.5" gradientUnits="userSpaceOnUse">
<stop stop-color="#34FA7D"/>
<stop offset="1" stop-color="#0BA967"/>
</linearGradient>
<linearGradient id="paint15_linear_65_21" x1="142.5" y1="-0.000488281" x2="142.5" y2="221" gradientUnits="userSpaceOnUse">
<stop stop-color="#34FA7D"/>
<stop offset="1" stop-color="#0BA967"/>
</linearGradient>
<linearGradient id="paint16_linear_65_21" x1="127.5" y1="319" x2="127.5" y2="540" gradientUnits="userSpaceOnUse">
<stop stop-color="#34FA7D"/>
<stop offset="1" stop-color="#0BA967"/>
</linearGradient>
<linearGradient id="paint17_linear_65_21" x1="70.5" y1="176" x2="70.5" y2="397" gradientUnits="userSpaceOnUse">
<stop stop-color="#34FA7D"/>
<stop offset="1" stop-color="#0BA967"/>
</linearGradient>
</defs>
</svg>
