<svg width="50" height="50" viewBox="0 0 50 50" fill="none" xmlns="http://www.w3.org/2000/svg">
<path d="M36.6952 32.3225C39.721 28.193 41.0762 23.0731 40.4897 17.9872C39.9033 12.9012 37.4183 8.22424 33.5321 4.892C29.6458 1.55975 24.6448 -0.182047 19.5297 0.0150768C14.4145 0.212201 9.5624 2.33371 5.94405 5.95516C2.32569 9.57661 0.207956 14.4309 0.0145199 19.547C-0.178916 24.663 1.56621 29.6634 4.90077 33.5478C8.23533 37.4322 12.9134 39.9142 17.9991 40.4971C23.0847 41.08 28.2029 39.7209 32.3297 36.6917H32.3266C32.4203 36.8168 32.5203 36.9355 32.6328 37.0512L44.6636 49.0836C45.2496 49.6701 46.0444 49.9997 46.8734 50C47.7023 50.0003 48.4974 49.6712 49.0838 49.0852C49.6701 48.4992 49.9997 47.7042 50 46.8751C50.0003 46.0461 49.6713 45.2509 49.0853 44.6644L37.0545 32.6319C36.9428 32.5188 36.8227 32.4175 36.6952 32.3225ZM37.5014 20.3088C37.5014 22.5661 37.0568 24.8014 36.1931 26.8869C35.3294 28.9724 34.0634 30.8673 32.4675 32.4635C30.8715 34.0596 28.9769 35.3258 26.8917 36.1896C24.8065 37.0535 22.5716 37.4981 20.3145 37.4981C18.0575 37.4981 15.8226 37.0535 13.7374 36.1896C11.6522 35.3258 9.75755 34.0596 8.1616 32.4635C6.56565 30.8673 5.29968 28.9724 4.43596 26.8869C3.57224 24.8014 3.12769 22.5661 3.12769 20.3088C3.12769 15.7499 4.93844 11.3778 8.1616 8.15415C11.3848 4.93054 15.7563 3.11953 20.3145 3.11953C24.8728 3.11953 29.2443 4.93054 32.4675 8.15415C35.6906 11.3778 37.5014 15.7499 37.5014 20.3088Z" fill="url(#paint0_linear_21_23)"/>
<path d="M26.3426 12.2402C24.6532 10.8619 22.5588 10.0751 20.3799 10C20.5917 11.2499 20.5373 12.5305 20.2204 13.758C19.9034 14.9854 19.3311 16.1322 18.5406 17.1234L20 18.5827L26.3426 12.2402ZM15.6911 17.1084L12.2402 13.6574C11.132 15.0154 10.4018 16.6418 10.1233 18.3723C11.0881 18.5632 12.0823 18.5493 13.0414 18.3316C14.0006 18.1139 14.9033 17.6971 15.6911 17.1084ZM27.7598 13.6574L21.4173 20L22.8766 21.4594C23.8679 20.6691 25.0147 20.0968 26.2421 19.7799C27.4696 19.463 28.7501 19.4085 30 19.6201C29.9249 17.4412 29.1381 15.3468 27.7598 13.6574ZM29.8767 21.6277C28.9119 21.4368 27.9177 21.4507 26.9586 21.6684C25.9994 21.8861 25.0967 22.3029 24.3089 22.8917L27.7598 26.3426C28.8686 24.9849 29.5988 23.3584 29.8767 21.6277ZM17.1084 15.6911C17.6971 14.9033 18.1139 14.0006 18.3316 13.0414C18.5493 12.0823 18.5632 11.0881 18.3723 10.1233C16.6416 10.4013 15.0152 11.1316 13.6574 12.2402L17.1084 15.6911ZM21.6277 29.8767C23.3582 29.5986 24.9845 28.8687 26.3426 27.7609L22.8917 24.3099C22.3028 25.0975 21.886 26 21.6682 26.959C21.4505 27.918 21.4367 28.9121 21.6277 29.8767ZM20 21.4173L13.6574 27.7598C15.3468 29.1381 17.4412 29.9249 19.6201 30C19.4083 28.7501 19.4627 27.4695 19.7796 26.2421C20.0966 25.0146 20.6689 23.8678 21.4594 22.8766L20 21.4173ZM12.2402 26.3426L18.5827 20L17.1234 18.5406C16.1321 19.3309 14.9853 19.9032 13.7579 20.2201C12.5304 20.537 11.2499 20.5915 10 20.3799C10.0751 22.5588 10.8619 24.6532 12.2402 26.3426Z" fill="url(#paint1_linear_21_23)"/>
<defs>
<linearGradient id="paint0_linear_21_23" x1="9.37751" y1="3.11922" x2="35.9437" y2="37.4941" gradientUnits="userSpaceOnUse">
<stop stop-color="#34FA7D"/>
<stop offset="1" stop-color="#0BA967" stop-opacity="0.46"/>
</linearGradient>
<linearGradient id="paint1_linear_21_23" x1="13.024" y1="12.543" x2="26.4949" y2="24.0895" gradientUnits="userSpaceOnUse">
<stop stop-color="#0BA967"/>
<stop offset="1" stop-color="#34FA7D" stop-opacity="0.75"/>
</linearGradient>
</defs>
</svg>
