<svg width="50" height="52" viewBox="0 0 50 52" fill="none" xmlns="http://www.w3.org/2000/svg">
<g filter="url(#filter0_d_34_19)">
<path d="M24 42C35.0457 42 44 33.0457 44 22C44 10.9543 35.0457 2 24 2C12.9543 2 4 10.9543 4 22C4 33.0457 12.9543 42 24 42Z" stroke="url(#paint0_linear_34_19)" stroke-width="4"/>
<path d="M24 2C23.8991 8.6682 22.2619 13.6696 19.0884 17.0044C15.9148 20.3391 10.8853 22.0071 4 22.0083" stroke="url(#paint1_linear_34_19)" stroke-width="4" stroke-linecap="round" stroke-linejoin="round"/>
<path d="M43.9682 23.0052C37.4557 22.5585 32.4795 23.9505 29.0395 27.1812C25.5994 30.4119 23.9206 35.3515 24.0029 41.9999" stroke="url(#paint2_linear_34_19)" stroke-width="4" stroke-linecap="round"/>
</g>
<defs>
<filter id="filter0_d_34_19" x="-2" y="0" width="52" height="52" filterUnits="userSpaceOnUse" color-interpolation-filters="sRGB">
<feFlood flood-opacity="0" result="BackgroundImageFix"/>
<feColorMatrix in="SourceAlpha" type="matrix" values="0 0 0 0 0 0 0 0 0 0 0 0 0 0 0 0 0 0 127 0" result="hardAlpha"/>
<feOffset dy="4"/>
<feGaussianBlur stdDeviation="2"/>
<feComposite in2="hardAlpha" operator="out"/>
<feColorMatrix type="matrix" values="0 0 0 0 0 0 0 0 0 0 0 0 0 0 0 0 0 0 0.25 0"/>
<feBlend mode="normal" in2="BackgroundImageFix" result="effect1_dropShadow_34_19"/>
<feBlend mode="normal" in="SourceGraphic" in2="effect1_dropShadow_34_19" result="shape"/>
</filter>
<linearGradient id="paint0_linear_34_19" x1="24" y1="2" x2="24" y2="42" gradientUnits="userSpaceOnUse">
<stop stop-color="white"/>
<stop offset="1" stop-color="white" stop-opacity="0.34"/>
</linearGradient>
<linearGradient id="paint1_linear_34_19" x1="14" y1="2" x2="14" y2="22.0083" gradientUnits="userSpaceOnUse">
<stop stop-color="white"/>
<stop offset="1" stop-color="white" stop-opacity="0.34"/>
</linearGradient>
<linearGradient id="paint2_linear_34_19" x1="33.9841" y1="22.9238" x2="33.9841" y2="41.9999" gradientUnits="userSpaceOnUse">
<stop stop-color="white"/>
<stop offset="1" stop-color="white" stop-opacity="0.34"/>
</linearGradient>
</defs>
</svg>
