<svg version="1.1" id="Layer_1" xmlns="http://www.w3.org/2000/svg" xmlns:xlink="http://www.w3.org/1999/xlink" x="0px" y="0px"
	 width="100%" viewBox="0 0 500 500" enable-background="new 0 0 500 500" xml:space="preserve">
<path fill="#FFFFFF" opacity="0.000000" stroke="none" 
	d="
M219.000000,501.000000 
	C146.000015,501.000000 73.500038,501.000000 1.000039,501.000000 
	C1.000026,334.333405 1.000026,167.666779 1.000013,1.000128 
	C167.666565,1.000086 334.333130,1.000086 500.999756,1.000043 
	C500.999847,167.666534 500.999847,334.333069 500.999939,500.999817 
	C407.166656,501.000000 313.333344,501.000000 219.000000,501.000000 
M299.557953,332.054718 
	C335.008484,308.782623 351.458160,268.621460 341.904449,228.667709 
	C330.334839,180.283463 281.752014,148.032730 233.495422,156.145340 
	C184.433014,164.393433 152.796600,207.422546 152.653137,248.410690 
	C152.555740,276.236542 161.527969,300.059845 181.290634,319.272217 
	C213.693115,350.772522 260.133636,355.645966 299.557953,332.054718 
z"/>
<path fill="#28DF6B" opacity="1.000000" stroke="none" 
	d="
M299.254211,332.255402 
	C260.133636,355.645966 213.693115,350.772522 181.290634,319.272217 
	C161.527969,300.059845 152.555740,276.236542 152.653137,248.410690 
	C152.796600,207.422546 184.433014,164.393433 233.495422,156.145340 
	C281.752014,148.032730 330.334839,180.283463 341.904449,228.667709 
	C351.458160,268.621460 335.008484,308.782623 299.254211,332.255402 
M306.691589,177.784821 
	C295.673157,169.227814 283.556976,163.010880 270.300140,160.139191 
	C275.366486,164.752441 281.330231,168.907547 285.651917,174.363388 
	C297.389526,189.181335 299.687653,205.940659 291.827423,223.139297 
	C283.826752,240.645248 269.610352,250.095322 250.210007,251.047684 
	C240.557251,251.521561 231.430450,253.477524 223.272568,258.874512 
	C206.934494,269.683319 199.738327,285.226196 202.328369,304.280243 
	C204.904709,323.233521 215.397354,337.454376 234.414322,342.292297 
	C243.595795,344.628052 253.962402,344.076660 263.528687,342.821960 
	C305.165314,337.361023 339.174011,300.939545 341.868225,257.428253 
	C343.854767,225.345856 331.665649,198.983170 306.691589,177.784821 
M249.258636,215.036148 
	C256.077362,213.588867 260.629852,208.113541 259.831787,202.319809 
	C259.113373,197.104736 253.375549,191.948044 248.518494,192.152390 
	C242.498291,192.405655 237.419235,197.380310 237.192337,203.245758 
	C236.934433,209.912811 241.222382,214.427200 249.258636,215.036148 
z"/>
<path fill="#00573F" opacity="1.000000" stroke="none" 
	d="
M306.991394,177.975906 
	C331.665649,198.983170 343.854767,225.345856 341.868225,257.428253 
	C339.174011,300.939545 305.165314,337.361023 263.528687,342.821960 
	C253.962402,344.076660 243.595795,344.628052 234.414322,342.292297 
	C215.397354,337.454376 204.904709,323.233521 202.328369,304.280243 
	C199.738327,285.226196 206.934494,269.683319 223.272568,258.874512 
	C231.430450,253.477524 240.557251,251.521561 250.210007,251.047684 
	C269.610352,250.095322 283.826752,240.645248 291.827423,223.139297 
	C299.687653,205.940659 297.389526,189.181335 285.651917,174.363388 
	C281.330231,168.907547 275.366486,164.752441 270.300140,160.139191 
	C283.556976,163.010880 295.673157,169.227814 306.991394,177.975906 
M258.596497,304.742188 
	C261.597900,297.890564 260.022522,291.034424 254.745636,287.982849 
	C249.514221,284.957581 242.701431,286.226624 239.060944,290.904510 
	C235.077560,296.023102 235.663177,302.874512 240.521606,306.973969 
	C245.403030,311.092865 253.382629,311.906830 258.596497,304.742188 
z"/>
<path fill="#015940" opacity="1.000000" stroke="none" 
	d="
M248.845459,215.057678 
	C241.222382,214.427200 236.934433,209.912811 237.192337,203.245758 
	C237.419235,197.380310 242.498291,192.405655 248.518494,192.152390 
	C253.375549,191.948044 259.113373,197.104736 259.831787,202.319809 
	C260.629852,208.113541 256.077362,213.588867 248.845459,215.057678 
z"/>
<path fill="#26DD6A" opacity="1.000000" stroke="none" 
	d="
M258.359314,305.054626 
	C253.382629,311.906830 245.403030,311.092865 240.521606,306.973969 
	C235.663177,302.874512 235.077560,296.023102 239.060944,290.904510 
	C242.701431,286.226624 249.514221,284.957581 254.745636,287.982849 
	C260.022522,291.034424 261.597900,297.890564 258.359314,305.054626 
z"/>
</svg>